REM DIRINDEX 1\2,1\3\7,1\3\8,1\4\9,1\4\10,1\4\11,1\5\12,1\5\13,1\5\14,1\6\15,1\6\16,1\6\17
REM DIRNAME "folder01","folder02","folder03","folder04","folder05","folder06","folder07","folder08","folder09","folder10","folder11","folder12","folder13","folder14","folder15","folder16","folder17"
TITLE ""
FILE "2Q_t_0052-0069.mp3" MP3
  TRACK 01 AUDIO
    TITLE "0:"
    INDEX 01 00:00:00
  TRACK 02 AUDIO
    TITLE "7:cjc174_1833"
    INDEX 01 00:00:08
  TRACK 03 AUDIO
    TITLE "0:"
    INDEX 01 00:01:47
  TRACK 04 AUDIO
    TITLE "8:cjc174_1834"
    INDEX 01 00:02:25
  TRACK 05 AUDIO
    TITLE "0:"
    INDEX 01 00:04:26
  TRACK 06 AUDIO
    TITLE "7:cjc174_1835"
    INDEX 01 00:04:71
  TRACK 07 AUDIO
    TITLE "0:"
    INDEX 01 00:06:17
  TRACK 08 AUDIO
    TITLE "8:cjc174_1836"
    INDEX 01 00:06:62
  TRACK 09 AUDIO
    TITLE "0:"
    INDEX 01 00:08:57
  TRACK 10 AUDIO
    TITLE "7:cjc174_1837"
    INDEX 01 00:09:27
  TRACK 11 AUDIO
    TITLE "0:"
    INDEX 01 00:10:46
  TRACK 12 AUDIO
    TITLE "8:cjc174_1838"
    INDEX 01 00:11:20
  TRACK 13 AUDIO
    TITLE "0:"
    INDEX 01 00:13:25
  TRACK 14 AUDIO
    TITLE "7:cjc174_1839"
    INDEX 01 00:13:70
  TRACK 15 AUDIO
    TITLE "0:"
    INDEX 01 00:15:37
  TRACK 16 AUDIO
    TITLE "8:cjc174_1840"
    INDEX 01 00:16:09
  TRACK 17 AUDIO
    TITLE "0:"
    INDEX 01 00:18:28
  TRACK 18 AUDIO
    TITLE "7:cjc174_1841"
    INDEX 01 00:18:71
  TRACK 19 AUDIO
    TITLE "0:"
    INDEX 01 00:20:01
  TRACK 20 AUDIO
    TITLE "8:cjc174_1842"
    INDEX 01 00:20:50
  TRACK 21 AUDIO
    TITLE "0:"
    INDEX 01 00:23:66
  TRACK 22 AUDIO
    TITLE "7:cjc174_1843"
    INDEX 01 00:24:34
  TRACK 23 AUDIO
    TITLE "0:"
    INDEX 01 00:25:42
  TRACK 24 AUDIO
    TITLE "8:cjc174_1844"
    INDEX 01 00:26:16
  TRACK 25 AUDIO
    TITLE "0:"
    INDEX 01 00:27:27
  TRACK 26 AUDIO
    TITLE "7:cjc174_1845"
    INDEX 01 00:27:72
  TRACK 27 AUDIO
    TITLE "0:"
    INDEX 01 00:29:34
  TRACK 28 AUDIO
    TITLE "8:cjc174_1846"
    INDEX 01 00:30:06
  TRACK 29 AUDIO
    TITLE "0:"
    INDEX 01 00:32:20
  TRACK 30 AUDIO
    TITLE "7:cjc174_1847"
    INDEX 01 00:32:65
  TRACK 31 AUDIO
    TITLE "0:"
    INDEX 01 00:33:72
  TRACK 32 AUDIO
    TITLE "8:cjc174_1848"
    INDEX 01 00:34:44
  TRACK 33 AUDIO
    TITLE "0:"
    INDEX 01 00:36:00
  TRACK 34 AUDIO
    TITLE "7:cjc174_1849"
    INDEX 01 00:36:43
  TRACK 35 AUDIO
    TITLE "0:"
    INDEX 01 00:37:55
  TRACK 36 AUDIO
    TITLE "8:cjc174_1850"
    INDEX 01 00:38:27
  TRACK 37 AUDIO
    TITLE "0:"
    INDEX 01 00:41:52
  TRACK 38 AUDIO
    TITLE "7:cjc174_1851"
    INDEX 01 00:42:22
  TRACK 39 AUDIO
    TITLE "0:"
    INDEX 01 00:43:47
  TRACK 40 AUDIO
    TITLE "8:cjc174_1852"
    INDEX 01 00:44:17
  TRACK 41 AUDIO
    TITLE "0:"
    INDEX 01 00:45:48
  TRACK 42 AUDIO
    TITLE "7:cjc174_1853"
    INDEX 01 00:46:22
  TRACK 43 AUDIO
    TITLE "0:"
    INDEX 01 00:47:57
  TRACK 44 AUDIO
    TITLE "8:cjc174_1854"
    INDEX 01 00:48:29
  TRACK 45 AUDIO
    TITLE "0:"
    INDEX 01 00:49:40
  TRACK 46 AUDIO
    TITLE "7:cjc174_1855"
    INDEX 01 00:50:08
  TRACK 47 AUDIO
    TITLE "0:"
    INDEX 01 00:51:47
  TRACK 48 AUDIO
    TITLE "8:cjc174_1856"
    INDEX 01 00:52:21
  TRACK 49 AUDIO
    TITLE "0:"
    INDEX 01 00:56:66
  TRACK 50 AUDIO
    TITLE "7:cjc174_1857"
    INDEX 01 00:57:34
  TRACK 51 AUDIO
    TITLE "0:"
    INDEX 01 00:58:53
  TRACK 52 AUDIO
    TITLE "8:cjc174_1858"
    INDEX 01 00:59:23
  TRACK 53 AUDIO
    TITLE "0:"
    INDEX 01 01:02:54
  TRACK 54 AUDIO
    TITLE "7:cjc174_1859"
    INDEX 01 01:03:23
  TRACK 55 AUDIO
    TITLE "0:"
    INDEX 01 01:04:67
  TRACK 56 AUDIO
    TITLE "8:cjc174_1860"
    INDEX 01 01:05:37
  TRACK 57 AUDIO
    TITLE "0:"
    INDEX 01 01:06:52
  TRACK 58 AUDIO
    TITLE "7:cjc174_1861"
    INDEX 01 01:07:20
  TRACK 59 AUDIO
    TITLE "0:"
    INDEX 01 01:08:32
  TRACK 60 AUDIO
    TITLE "8:cjc174_1862"
    INDEX 01 01:09:04
  TRACK 61 AUDIO
    TITLE "0:"
    INDEX 01 01:11:36
  TRACK 62 AUDIO
    TITLE "7:cjc174_1863"
    INDEX 01 01:12:06
  TRACK 63 AUDIO
    TITLE "0:"
    INDEX 01 01:13:05
  TRACK 64 AUDIO
    TITLE "8:cjc174_1864"
    INDEX 01 01:13:54
  TRACK 65 AUDIO
    TITLE "0:"
    INDEX 01 01:14:58
  TRACK 66 AUDIO
    TITLE "7:cjc174_1865"
    INDEX 01 01:15:28
  TRACK 67 AUDIO
    TITLE "0:"
    INDEX 01 01:16:45
  TRACK 68 AUDIO
    TITLE "8:cjc174_1866"
    INDEX 01 01:17:19
  TRACK 69 AUDIO
    TITLE "0:"
    INDEX 01 01:19:37
  TRACK 70 AUDIO
    TITLE "7:cjc174_1867"
    INDEX 01 01:20:09
  TRACK 71 AUDIO
    TITLE "0:"
    INDEX 01 01:21:13
  TRACK 72 AUDIO
    TITLE "8:cjc174_1868"
    INDEX 01 01:21:60
  TRACK 73 AUDIO
    TITLE "0:"
    INDEX 01 01:23:02
